HIERARCHY
ROOT Hips
{
	OFFSET 0.000000 0.000000 -0.875853
	CHANNELS 6 Xposition Yposition Zposition Zrotation Yrotation Xrotation
	JOINT LHipJoint
	{
		OFFSET 0.000000 0.000000 0.000000
		CHANNELS 6 Xposition Yposition Zposition Zrotation Yrotation Xrotation
		JOINT LeftHip
		{
			OFFSET 1.611894 -0.673180 -0.658330
			CHANNELS 3 Zrotation Yrotation Xrotation
			JOINT LeftKnee
			{
				OFFSET 0.014856 -0.000000 -4.809133
				CHANNELS 6 Xposition Yposition Zposition Zrotation Yrotation Xrotation
				JOINT LeftAnkle
				{
					OFFSET 0.014554 0.000000 -7.368487
					CHANNELS 6 Xposition Yposition Zposition Zrotation Yrotation Xrotation
					JOINT LeftToe
					{
						OFFSET 0.001350 -2.102140 -0.681086
						CHANNELS 6 Xposition Yposition Zposition Zrotation Yrotation Xrotation
						End Site
						{
							OFFSET 0.000000 -1.101390 -0.000001
						}
					}
				}
			}
		}
	}
	JOINT RHipJoint
	{
		OFFSET 0.000000 0.000000 0.000000
		CHANNELS 6 Xposition Yposition Zposition Zrotation Yrotation Xrotation
		JOINT RightHip
		{
			OFFSET -1.611894 -0.673180 -0.658330
			CHANNELS 3 Zrotation Yrotation Xrotation
			JOINT RightKnee
			{
				OFFSET -0.014856 -0.000000 -4.809133
				CHANNELS 6 Xposition Yposition Zposition Zrotation Yrotation Xrotation
				JOINT RightAnkle
				{
					OFFSET -0.014554 0.000000 -7.368487
					CHANNELS 6 Xposition Yposition Zposition Zrotation Yrotation Xrotation
					JOINT RightToe
					{
						OFFSET -0.001350 -2.102140 -0.681086
						CHANNELS 6 Xposition Yposition Zposition Zrotation Yrotation Xrotation
						End Site
						{
							OFFSET 0.000000 -1.101390 -0.000001
						}
					}
				}
			}
		}
	}
	JOINT lowerback
	{
		OFFSET 0.000000 0.000000 0.000000
		CHANNELS 6 Xposition Yposition Zposition Zrotation Yrotation Xrotation
		JOINT Chest
		{
			OFFSET -0.021080 0.169810 2.075729
			CHANNELS 3 Zrotation Yrotation Xrotation
			JOINT Chest2
			{
				OFFSET 0.050700 0.031410 2.084391
				CHANNELS 6 Xposition Yposition Zposition Zrotation Yrotation Xrotation
				JOINT lowerneck
				{
					OFFSET 0.000000 0.000000 0.000000
					CHANNELS 6 Xposition Yposition Zposition Zrotation Yrotation Xrotation
					JOINT Neck
					{
						OFFSET -0.107310 -0.313700 1.604080
						CHANNELS 3 Zrotation Yrotation Xrotation
						JOINT Head
						{
							OFFSET 0.084110 0.308220 1.656790
							CHANNELS 6 Xposition Yposition Zposition Zrotation Yrotation Xrotation
							End Site
							{
								OFFSET 0.039110 0.141460 1.691490
							}
						}
					}
				}
				JOINT LeftCollar
				{
					OFFSET 0.000000 0.000000 0.000000
					CHANNELS 6 Xposition Yposition Zposition Zrotation Yrotation Xrotation
					JOINT LeftShoulder
					{
						OFFSET 2.210152 0.546940 0.732191
						CHANNELS 3 Zrotation Xrotation Yrotation
						JOINT LeftElbow
						{
							OFFSET 4.208010 -0.000001 0.067692
							CHANNELS 6 Xposition Yposition Zposition Zrotation Xrotation Yrotation
							JOINT LeftWrist
							{
								OFFSET 4.447773 -0.000001 0.079357
								CHANNELS 6 Xposition Yposition Zposition Zrotation Xrotation Yrotation
								JOINT lhand
								{
									OFFSET 0.000000 0.000000 0.000000
									CHANNELS 6 Xposition Yposition Zposition Zrotation Xrotation Yrotation
									JOINT LFingers
									{
										OFFSET 0.572473 0.000000 -0.002867
										CHANNELS 3 Zrotation Xrotation Yrotation
										End Site
										{
											OFFSET 0.461535 0.000000 -0.002314
										}
									}
								}
								JOINT LThumb
								{
									OFFSET 0.000000 0.000000 0.000000
									CHANNELS 6 Xposition Yposition Zposition Zrotation Xrotation Yrotation
									End Site
									{
										OFFSET 0.468585 -0.468590 -0.002348
									}
								}
							}
						}
					}
				}
				JOINT RightCollar
				{
					OFFSET -0.059240 0.000000 0.000000
					CHANNELS 6 Xposition Yposition Zposition Zrotation Yrotation Xrotation
					JOINT RightShoulder
					{
						OFFSET -2.210152 0.546940 0.732191
						CHANNELS 6 Xposition Yposition Zposition Zrotation Xrotation Yrotation
						JOINT RightElbow
						{
							OFFSET -4.208010 -0.000001 0.067692
							CHANNELS 6 Xposition Yposition Zposition Zrotation Xrotation Yrotation
							JOINT RightWrist
							{
								OFFSET -4.447773 -0.000001 0.079357
								CHANNELS 6 Xposition Yposition Zposition Zrotation Xrotation Yrotation
								JOINT rhand
								{
									OFFSET -0.100282 0.186255 0.048263
									CHANNELS 6 Xposition Yposition Zposition Zrotation Xrotation Yrotation
									JOINT RFingers
									{
										OFFSET -0.731912 0.000000 -0.065197
										CHANNELS 6 Xposition Yposition Zposition Zrotation Xrotation Yrotation
										End Site
										{
											OFFSET -0.590084 0.000000 -0.052563
										}
									}
								}
								JOINT RThumb
								{
									OFFSET -0.100282 0.186255 0.048263
									CHANNELS 6 Xposition Yposition Zposition Zrotation Xrotation Yrotation
									End Site
									{
										OFFSET -0.599097 -0.601470 -0.053366
									}
								}
							}
						}
					}
				}
			}
		}
	}
}
MOTION
Frames: 4
Frame Time: 0.041667
0.190038 0.040380 13.100329 86.925550 6.021714 1.313889 -0.000002 0.000001 -0.000001 0.000003 -0.000001 -0.000009 6.184182 -4.409142 -11.904277 0.014856 -0.000004 -4.809133 -0.522810 -11.585981 63.349595 0.014555 0.000000 -7.368486 6.446207 4.530548 9.561573 0.001350 -2.102137 -0.681087 0.000009 -0.000021 -2.663072 -0.000001 0.000004 -0.000003 -7.902452 -0.123242 0.843557 2.992367 -14.208799 -15.688618 -0.014856 0.000004 -4.809133 -4.661498 4.504273 16.582842 -0.014554 -0.000005 -7.368489 -6.707709 4.563000 -3.908761 -0.001351 -2.102148 -0.681085 0.000018 0.000035 -1.680389 -0.000000 0.000002 -0.000002 -0.025612 0.900029 1.852695 -11.875483 -4.435092 4.873831 0.050700 0.031410 2.084389 -33.695516 -3.989264 4.113548 -0.000000 0.000000 0.000008 -0.000005 -0.000001 0.000000 -5.373778 -0.867663 3.495953 0.084108 0.308219 1.656791 -37.254755 -8.245802 -8.547317 -0.000004 -0.000007 0.000001 -21.985086 13.528858 0.984075 -7.021853 -2.534792 60.476940 4.208008 -0.000003 0.067692 -21.914119 -0.136193 -0.026396 4.447768 -0.000003 0.079359 -25.194780 17.217751 -16.062822 -0.000002 -0.000001 0.000004 0.000004 -0.000002 -0.000002 -0.000002 -0.000003 0.000001 -0.000004 -0.000003 -0.000010 -0.000006 -0.000002 -0.000005 -0.059240 -0.000000 0.000005 -2.997008 -12.627994 4.333797 -2.210154 0.546939 0.732189 12.629932 8.835340 -65.599363 -4.208014 -0.000003 0.067690 17.268998 -0.108323 0.016446 -4.447774 0.000001 0.079357 17.277244 39.027458 9.520783 -0.100281 0.186254 0.048264 -0.000000 -0.000000 -0.000000 -0.731911 -0.000000 -0.065198 -0.000001 -0.000001 -0.000001 -0.100282 0.186255 0.048263 -0.000001 -0.000002 0.000000 
0.967050 0.063291 13.245052 86.638935 5.320696 1.379673 -0.000002 0.000001 -0.000001 -0.000003 -0.000001 -0.000005 3.785933 -2.759263 -19.085531 0.014856 0.000000 -4.809134 0.011381 -11.219368 62.830316 0.014555 -0.000002 -7.368485 5.748204 3.040114 2.246944 0.001350 -2.102138 -0.681087 0.000006 -0.000021 -0.964188 -0.000001 0.000004 -0.000003 -7.902449 -0.123242 0.843558 0.708396 -13.598453 -8.706352 -0.014856 0.000004 -4.809134 -5.491660 4.869833 11.180920 -0.014554 -0.000006 -7.368489 -3.467843 3.821887 -4.427339 -0.001351 -2.102148 -0.681085 0.000019 0.000036 -3.621703 0.000000 0.000002 -0.000002 -0.025611 0.900029 1.852695 -10.514970 -3.758826 4.482847 0.050700 0.031409 2.084388 -32.832979 -3.708221 3.927606 -0.000000 0.000000 0.000002 -0.000001 -0.000000 -0.000003 -5.709129 -0.999247 4.132339 0.084108 0.308220 1.656793 -38.413967 -8.574624 -7.910154 -0.000004 -0.000007 -0.000003 -21.951400 14.228853 0.888552 -0.448175 -2.390956 62.102942 4.208008 -0.000003 0.067692 -14.326651 -0.090311 -0.011369 4.447768 -0.000003 0.079357 -26.870862 20.848036 -12.249933 -0.000003 -0.000001 0.000006 0.000001 0.000002 -0.000007 0.000001 -0.000002 0.000002 -0.000005 -0.000004 -0.000006 -0.000013 -0.000000 -0.000003 -0.059240 -0.000002 0.000002 -2.204994 -12.563625 4.242236 -2.210152 0.546940 0.732192 16.944531 4.514824 -63.970958 -4.208013 -0.000002 0.067690 17.808567 -0.111607 0.017481 -4.447773 0.000000 0.079357 18.970630 32.030227 7.500784 -0.100280 0.186254 0.048264 -0.000002 -0.000001 0.000002 -0.731909 0.000000 -0.065197 -0.000001 -0.000002 0.000004 -0.100284 0.186255 0.048263 -0.000008 0.000007 0.000004 
1.757286 0.094137 13.322305 85.806212 4.664089 1.478974 -0.000002 0.000001 -0.000003 0.000003 -0.000003 -0.000010 2.152702 -1.940253 -25.574610 0.014856 -0.000003 -4.809134 0.934143 -10.859895 59.919631 0.014555 -0.000002 -7.368484 5.000150 2.207500 -2.980403 0.001351 -2.102137 -0.681086 0.000003 -0.000022 0.384111 -0.000001 0.000004 -0.000005 -7.902452 -0.123240 0.843562 -1.826864 -12.306531 -3.343305 -0.014856 0.000004 -4.809135 -4.651793 4.456330 8.841088 -0.014554 -0.000005 -7.368492 -1.267840 3.138030 -4.787947 -0.001351 -2.102147 -0.681085 0.000007 0.000037 -6.426274 0.000000 0.000002 -0.000004 -0.025613 0.900031 1.852696 -8.962146 -3.258628 4.229640 0.050700 0.031411 2.084389 -31.864940 -3.519528 3.855006 -0.000000 0.000000 0.000009 -0.000005 -0.000000 0.000001 -6.014779 -1.011824 4.537976 0.084108 0.308220 1.656790 -39.259763 -8.752836 -8.050184 -0.000004 -0.000007 0.000004 -21.765899 14.886749 0.819726 6.537427 -1.602712 63.036424 4.208005 -0.000002 0.067692 -8.237387 -0.052291 -0.003783 4.447768 -0.000002 0.079357 -27.600489 25.648861 -9.973869 -0.000003 -0.000001 0.000002 0.000001 0.000001 -0.000001 0.000000 0.000000 -0.000001 -0.000005 -0.000002 -0.000011 0.000003 0.000004 -0.000002 -0.059240 -0.000001 0.000007 -0.701595 -11.593997 3.993468 -2.210152 0.546940 0.732194 22.420984 2.177437 -61.768290 -4.208015 -0.000003 0.067692 20.242490 -0.126274 0.022542 -4.447777 -0.000001 0.079353 15.659409 23.878790 5.297303 -0.100280 0.186255 0.048265 0.000000 -0.000000 0.000001 -0.731910 -0.000000 -0.065198 0.000002 -0.000001 0.000004 -0.100283 0.186254 0.048262 -0.000003 0.000002 0.000006 
2.562923 0.129004 13.324047 84.405060 3.991316 1.758669 -0.000002 0.000001 -0.000002 -0.000006 -0.000004 -0.000005 1.599158 -1.579647 -31.035748 0.014856 -0.000001 -4.809134 2.463600 -10.348911 53.445213 0.014555 -0.000001 -7.368488 3.807746 1.650293 -5.773828 0.001350 -2.102138 -0.681086 0.000006 -0.000022 1.088348 -0.000001 0.000004 -0.000004 -7.902454 -0.123239 0.843561 -4.726988 -10.023933 0.967019 -0.014856 0.000004 -4.809133 -1.741499 3.018327 9.163122 -0.014554 -0.000005 -7.368491 -0.287253 2.806130 -6.110833 -0.001351 -2.102148 -0.681088 0.000003 0.000036 -8.723408 0.000000 0.000002 -0.000003 -0.025612 0.900031 1.852695 -7.275997 -2.909584 3.986019 0.050700 0.031410 2.084387 -30.836402 -3.459052 3.755494 -0.000000 -0.000001 0.000004 0.000005 -0.000000 0.000000 -6.250979 -0.839506 4.687923 0.084108 0.308220 1.656792 -39.742941 -8.662290 -8.789885 -0.000004 -0.000007 -0.000002 -21.304041 15.451155 0.802392 13.517287 0.044659 63.362033 4.208007 -0.000002 0.067691 -4.255506 -0.027102 -0.001020 4.447769 -0.000002 0.079358 -26.107358 30.104571 -9.035058 -0.000002 -0.000001 0.000005 0.000001 0.000001 -0.000005 0.000003 -0.000001 0.000004 -0.000004 -0.000004 -0.000009 -0.000009 -0.000000 -0.000000 -0.059240 -0.000002 -0.000000 1.237024 -9.861643 3.701817 -2.210153 0.546939 0.732191 28.062901 1.209615 -59.103130 -4.208013 -0.000003 0.067693 23.986024 -0.148346 0.031496 -4.447775 0.000000 0.079356 9.336007 16.084906 2.306251 -0.100281 0.186255 0.048264 0.000000 -0.000002 0.000001 -0.731908 0.000000 -0.065197 0.000002 -0.000001 0.000002 -0.100282 0.186254 0.048262 -0.000004 -0.000002 0.000003 
